# xmcd
#
# Track frame offsets:
# 150
# 12222
# 27924
# 39856
# 53245
# 65487
# 80774
# 94341
# 108101
# 119893
# 133733
# 148755
# 163104
# 177441
# 192433
# 204957
# 216802
# 231067
# 243869
# 256148
#
# Disc length: 3605 seconds
#
#
# Revision: 1
# Processed by: cddbd v1.5.2PL0 Copyright (c) Steve Scherf et al.
# Submitted via: FreeRIP 2.96 
#
DISCID=1d0e1314
DTITLE=Ella Fitzgerald - It's only a paper moon
DYEAR=1900
DGENRE=Jazz
TTITLE0=Ella Fitzgerald - 'A-tisket, A-tasket'
TTITLE1=Ella Fitzgerald - Benny's coming home on saturday
TTITLE2=Ella Fitzgerald - Sing me a swing song
TTITLE3=Ella Fitzgerald - This love of mine
TTITLE4=Ella Fitzgerald - All over nothing at all
TTITLE5=Ella Fitzgerald - He's my guy
TTITLE6=Ella Fitzgerald - (If you can't sing it) you'll have to swing it
TTITLE7=Ella Fitzgerald - Cow cow boogie
TTITLE8=Ella Fitzgerald - It's only a paper moon
TTITLE9=Ella Fitzgerald - My melancholy baby
TTITLE10=Ella Fitzgerald - Undecided
TTITLE11=Ella Fitzgerald - Darktown strutter's ball
TTITLE12=Ella Fitzgerald - Time alne will tell
TTITLE13=Ella Fitzgerald - Stairway to the stars
TTITLE14=Ella Fitzgerald - 'Mama, come Home'
TTITLE15=Ella Fitzgerald - I'll chase the blues away
TTITLE16=Ella Fitzgerald - A kiss good night
TTITLE17=Ella Fitzgerald - Big boy blue
TTITLE18=Ella Fitzgerald - Stone cold dead in de market
TTITLE19='Good night, my love'
EXTD=VOICES OF THE WORLD
EXTT0=
EXTT1=
EXTT2=
EXTT3=
EXTT4=
EXTT5=
EXTT6=
EXTT7=
EXTT8=
EXTT9=
EXTT10=
EXTT11=
EXTT12=
EXTT13=
EXTT14=
EXTT15=
EXTT16=
EXTT17=
EXTT18=
EXTT19=
PLAYORDER=
